<svg xmlns="http://www.w3.org/2000/svg" xmlns:xlink="http://www.w3.org/1999/xlink" width="1920" height="1080" viewBox="0 0 1920 1080">
  <defs>
    <clipPath id="clip-path">
      <rect id="Rectangle_109" data-name="Rectangle 109" width="1920" height="1080" fill="#fff" stroke="#707070" stroke-width="1"/>
    </clipPath>
  </defs>
  <g id="bg-new" clip-path="url(#clip-path)">
    <g id="Group_273" data-name="Group 273">
      <g id="Group_271" data-name="Group 271" transform="translate(840.639 843.141) rotate(-161)">
        <g id="Group_267" data-name="Group 267" transform="translate(8.653 41.068)">
          <path id="Path_344" data-name="Path 344" d="M11442.637,199.539s192.87-81.846,404.109-37.087,315.328,53.712,422.479,43.481,146.183-29.414,293.9-20.462,287.777,46.039,296.96,56.269,70.412,36.767,52.044,80.567-28.318,60.426-125.517,94.635-195.934,38.366-263.284,42.2-222.721,5.435-416.355-10.231-175.268,8.952-306.144-12.789-156.134-102.308-217.363-74.173-94.138,15.666-140.825-11.51-52.045-57.548-45.921-97.192S11442.637,199.539,11442.637,199.539Z" transform="translate(-11156.124 -149.068)" fill="none" stroke="rgba(255,255,255,0.15)" stroke-width="1"/>
          <path id="Path_345" data-name="Path 345" d="M11444.888,193.043s201.922-71.312,423.073-32.313,330.126,46.8,442.3,37.885,153.043-25.628,307.688-17.828,301.281,40.113,310.895,49.027,73.717,32.035,54.487,70.2-29.647,52.649-131.408,82.455-205.127,33.428-275.639,36.77-233.172,4.736-435.894-8.914-183.492,7.8-320.51-11.143-163.461-89.14-227.563-64.627-98.556,13.65-147.435-10.028-54.486-50.141-48.075-84.683S11444.888,193.043,11444.888,193.043Z" transform="translate(-11227.495 -128.948)" fill="none" stroke="rgba(255,255,255,0.15)" stroke-width="1"/>
          <path id="Path_346" data-name="Path 346" d="M11442.9,191.028s193.915-68.045,406.3-30.833,317.036,44.655,424.767,36.149,146.975-24.454,295.489-17.011,289.335,38.275,298.567,46.781,70.795,30.567,52.329,66.982-28.474,50.236-126.2,78.677-196.993,31.9-264.709,35.086-223.928,4.519-418.61-8.506-176.216,7.442-307.8-10.632-156.98-85.056-218.54-61.666-94.649,13.024-141.59-9.569-52.324-47.844-46.17-80.8S11442.9,191.028,11442.9,191.028Z" transform="translate(-11176.934 -128.948)" fill="none" stroke="rgba(255,255,255,0.15)" stroke-width="1"/>
          <path id="Path_347" data-name="Path 347" d="M11443.253,188.564s195.358-64.05,409.324-29.022,319.394,42.033,427.926,34.026,148.068-23.018,297.684-16.012,291.488,36.028,300.789,44.034,71.323,28.772,52.72,63.049-28.686,47.287-127.139,74.057-198.459,30.023-266.681,33.026-225.592,4.253-421.724-8.006-177.525,7.005-310.09-10.008-158.146-80.062-220.165-58.045-95.354,12.259-142.645-9.007-52.712-45.035-46.511-76.059S11443.253,188.564,11443.253,188.564Z" transform="translate(-11203.679 -128.948)" fill="none" stroke="rgba(255,255,255,0.15)" stroke-width="1"/>
          <path id="Path_348" data-name="Path 348" d="M11443.052,181.665s194.551-52.862,407.632-23.953,318.074,34.691,426.157,28.083,147.457-19,296.454-13.215,290.283,29.735,299.545,36.343,71.028,23.747,52.5,52.036-28.566,39.027-126.613,61.122-197.638,24.779-265.577,27.257-224.66,3.51-419.981-6.608-176.792,5.782-308.809-8.26-157.492-66.077-219.255-47.906-94.96,10.118-142.055-7.434-52.494-37.169-46.319-62.774S11443.052,181.665,11443.052,181.665Z" transform="translate(-11197.313 -107.579)" fill="none" stroke="rgba(255,255,255,0.15)" stroke-width="1"/>
          <path id="Path_349" data-name="Path 349" d="M11441.021,175.752s186.385-43.273,390.521-19.608,304.727,28.4,408.271,22.989,141.268-15.551,284.014-10.818,278.1,24.341,286.972,29.75,68.045,19.439,50.3,42.6-27.366,31.947-121.3,50.034-189.344,20.284-254.431,22.312-215.232,2.874-402.355-5.409-169.372,4.733-295.848-6.761-150.883-54.091-210.053-39.216-90.973,8.283-136.091-6.085-50.292-30.426-44.375-51.386S11441.021,175.752,11441.021,175.752Z" transform="translate(-11150.361 -89.263)" fill="none" stroke="rgba(255,255,255,0.15)" stroke-width="1"/>
        </g>
        <g id="Group_269" data-name="Group 269" transform="translate(105.93 -104.734)">
          <path id="Path_344-2" data-name="Path 344" d="M11444.023,246.612s198.447-158.181,415.795-71.676,324.445,103.806,434.693,84.034,150.41-56.846,302.4-39.545,296.1,88.977,305.545,108.75,72.449,71.058,53.551,155.71-29.139,116.782-129.148,182.9-201.6,74.148-270.9,81.562-229.16,10.5-428.395-19.773-180.334,17.3-314.994-24.716-160.648-197.727-223.648-143.352-96.861,30.277-144.9-22.244-53.549-111.221-47.248-187.84S11444.023,246.612,11444.023,246.612Z" transform="translate(-11394.653 -149.068)" fill="none" stroke="rgba(255,255,255,0.15)" stroke-width="1"/>
          <path id="Path_345-2" data-name="Path 345" d="M11444.023,240.116s198.447-147.647,415.795-66.9,324.445,96.894,434.693,78.438,150.41-53.061,302.4-36.912,296.1,83.052,305.545,101.508,72.449,66.326,53.551,145.34-29.139,109.005-129.148,170.717-201.6,69.21-270.9,76.131-229.16,9.8-428.395-18.456-180.334,16.149-314.994-23.07S11651.922,482.35,11588.922,533.1s-96.861,28.261-144.9-20.763-53.549-103.815-47.248-175.331S11444.023,240.116,11444.023,240.116Z" transform="translate(-11394.653 -128.948)" fill="none" stroke="rgba(255,255,255,0.15)" stroke-width="1"/>
          <path id="Path_346-2" data-name="Path 346" d="M11443.23,238.1s195.26-144.38,409.115-65.422,319.234,94.75,427.709,76.7,147.994-51.887,297.539-36.1,291.338,81.214,300.635,99.261,71.285,64.858,52.691,142.124-28.67,106.593-127.074,166.94-198.359,67.678-266.545,74.446-225.479,9.588-421.51-18.048-177.439,15.792-309.936-22.559-158.068-180.475-220.055-130.844-95.3,27.635-142.57-20.3-52.687-101.517-46.49-171.452S11443.23,238.1,11443.23,238.1Z" transform="translate(-11382.083 -128.948)" fill="none" stroke="rgba(255,255,255,0.15)" stroke-width="1"/>
          <path id="Path_347-2" data-name="Path 347" d="M11442.26,235.637s191.361-140.385,400.945-63.612,312.859,92.127,419.17,74.579,145.039-50.451,291.594-35.1,285.523,78.966,294.633,96.514,69.863,63.063,51.641,138.191-28.1,103.643-124.535,162.32-194.4,65.805-261.223,72.386-220.977,9.323-413.1-17.548-173.893,15.355-303.744-21.935-154.91-175.481-215.662-127.224-93.4,26.871-139.723-19.742-51.635-98.708-45.561-166.707S11442.26,235.637,11442.26,235.637Z" transform="translate(-11366.71 -128.948)" fill="none" stroke="rgba(255,255,255,0.15)" stroke-width="1"/>
          <path id="Path_348-2" data-name="Path 348" d="M11442.26,228.738s191.361-129.2,400.945-58.542,312.859,84.786,419.17,68.636,145.039-46.43,291.594-32.3,285.523,72.673,294.633,88.823,69.863,58.038,51.641,127.178-28.1,95.384-124.535,149.384-194.4,60.561-261.223,66.617-220.977,8.58-413.1-16.15-173.893,14.131-303.744-20.187-154.91-161.5-215.662-117.085-93.4,24.729-139.723-18.168-51.635-90.842-45.561-153.422S11442.26,228.738,11442.26,228.738Z" transform="translate(-11366.71 -107.579)" fill="none" stroke="rgba(255,255,255,0.15)" stroke-width="1"/>
          <path id="Path_349-2" data-name="Path 349" d="M11441.16,222.825s186.936-119.608,391.678-54.2,305.631,78.492,409.48,63.541,141.688-42.984,284.857-29.9S12806.1,269.546,12815,284.5s68.246,53.73,50.445,117.739-27.445,88.3-121.654,138.3S12553.883,596.6,12488.6,602.2s-215.873,7.943-403.551-14.951-169.871,13.082-296.725-18.689S11637,419.056,11577.654,460.171s-91.244,22.894-136.494-16.82-50.441-84.1-44.508-142.034S11441.16,222.825,11441.16,222.825Z" transform="translate(-11349.271 -89.263)" fill="none" stroke="rgba(255,255,255,0.15)" stroke-width="1"/>
        </g>
        <g id="Group_268" data-name="Group 268" transform="translate(200.915 118.195)">
          <path id="Path_344-3" data-name="Path 344" d="M11442.81,174.638s193.564-41.466,405.563-18.789,316.461,27.212,424,22.029,146.708-14.9,294.953-10.367,288.811,23.325,298.026,28.508,70.664,18.627,52.231,40.818-28.422,30.614-125.971,47.945-196.635,19.437-264.229,21.381-223.521,2.754-417.853-5.183-175.9,4.535-307.243-6.479-156.693-51.833-218.143-37.579-94.479,7.937-141.333-5.831-52.231-29.156-46.085-49.241S11442.81,174.638,11442.81,174.638Z" transform="translate(-11394.654 -149.068)" fill="none" stroke="rgba(255,255,255,0.15)" stroke-width="1"/>
          <path id="Path_345-3" data-name="Path 345" d="M11442.81,168.142s193.564-30.932,405.563-14.016,316.461,20.3,424,16.433,146.708-11.116,294.953-7.733,288.811,17.4,298.026,21.266,70.664,13.9,52.231,30.449-28.422,22.837-125.971,35.765-196.635,14.5-264.229,15.949-223.521,2.054-417.853-3.867-175.9,3.383-307.243-4.833-156.693-38.665-218.143-28.032-94.479,5.921-141.333-4.35-52.231-21.749-46.085-36.732S11442.81,168.142,11442.81,168.142Z" transform="translate(-11394.654 -128.948)" fill="none" stroke="rgba(255,255,255,0.15)" stroke-width="1"/>
          <path id="Path_346-3" data-name="Path 346" d="M11442.017,166.128s190.374-27.665,398.881-12.536,311.25,18.155,417.013,14.7,144.292-9.942,290.1-6.916,284.054,15.562,293.116,19.02,69.5,12.428,51.373,27.233-27.953,20.425-123.895,31.988-193.4,12.968-259.878,14.265-219.84,1.837-410.969-3.458-173,3.026-302.182-4.323-154.115-34.581-214.553-25.071-92.92,5.3-139-3.89-51.372-19.452-45.327-32.852S11442.017,166.128,11442.017,166.128Z" transform="translate(-11382.083 -128.948)" fill="none" stroke="rgba(255,255,255,0.15)" stroke-width="1"/>
          <path id="Path_347-3" data-name="Path 347" d="M11441.042,163.664s186.479-23.669,390.715-10.725,304.875,15.533,408.472,12.574,141.337-8.506,284.152-5.917,278.236,13.314,287.114,16.273,68.08,10.633,50.321,23.3-27.38,17.475-121.357,27.368-189.436,11.1-254.555,12.2-215.339,1.572-402.554-2.959-169.454,2.589-295.993-3.7S11636.4,202.5,11577.2,210.633s-91.018,4.53-136.159-3.329-50.315-16.643-44.4-28.107S11441.042,163.664,11441.042,163.664Z" transform="translate(-11366.709 -128.948)" fill="none" stroke="rgba(255,255,255,0.15)" stroke-width="1"/>
          <path id="Path_348-3" data-name="Path 348" d="M11441.042,156.765s186.479-12.482,390.715-5.656,304.875,8.191,408.472,6.631,141.337-4.486,284.152-3.12,278.236,7.021,287.114,8.581,68.08,5.607,50.321,12.287-27.38,9.215-121.357,14.432-189.436,5.851-254.555,6.436-215.339.829-402.554-1.56-169.454,1.365-295.993-1.95-150.955-15.6-210.156-11.312-91.018,2.389-136.159-1.755-50.315-8.776-44.4-14.822S11441.042,156.765,11441.042,156.765Z" transform="translate(-11366.709 -107.579)" fill="none" stroke="rgba(255,255,255,0.15)" stroke-width="1"/>
          <path id="Path_349-3" data-name="Path 349" d="M11439.942,150.851s182.055-2.892,381.447-1.311,297.645,1.9,398.785,1.537,137.984-1.039,277.413-.723,271.635,1.627,280.3,1.988,66.465,1.3,49.13,2.847-26.73,2.135-118.479,3.344-184.945,1.356-248.521,1.491-210.23.192-393-.362-165.437.316-288.976-.452-147.375-3.615-205.17-2.621-88.861.554-132.931-.407-49.12-2.034-43.343-3.435S11439.942,150.851,11439.942,150.851Z" transform="translate(-11349.272 -89.263)" fill="none" stroke="rgba(255,255,255,0.15)" stroke-width="1"/>
        </g>
        <g id="Group_270" data-name="Group 270" transform="translate(146.732 -27.607)">
          <path id="Path_344-4" data-name="Path 344" d="M11441.449,221.711s188.1-117.8,394.113-53.379,307.525,77.307,412.023,62.582,142.566-42.335,286.627-29.45,280.656,66.263,289.613,80.988,68.67,52.918,50.754,115.961-27.617,86.97-122.412,136.208-191.084,55.219-256.77,60.741-217.209,7.823-406.053-14.725-170.932,12.885-298.57-18.406-152.27-147.251-211.984-106.757-91.811,22.548-137.342-16.566-50.758-82.829-44.785-139.889S11441.449,221.711,11441.449,221.711Z" transform="translate(-11394.652 -149.068)" fill="none" stroke="rgba(255,255,255,0.15)" stroke-width="1"/>
          <path id="Path_345-4" data-name="Path 345" d="M11441.449,215.215s188.1-107.267,394.113-48.605S12143.088,237,12247.586,223.6s142.566-38.549,286.627-26.817,280.656,60.338,289.613,73.746,68.67,48.186,50.754,105.591-27.617,79.193-122.412,124.028-191.084,50.281-256.77,55.31-217.209,7.123-406.053-13.408-170.932,11.732-298.57-16.76-152.27-134.084-211.984-97.211-91.811,20.532-137.342-15.084-50.758-75.422-44.785-127.38S11441.449,215.215,11441.449,215.215Z" transform="translate(-11394.652 -128.948)" fill="none" stroke="rgba(255,255,255,0.15)" stroke-width="1"/>
          <path id="Path_346-4" data-name="Path 346" d="M11440.656,213.2s184.91-104,387.432-47.125,302.314,68.25,405.043,55.25,140.148-37.375,281.766-26,275.9,58.5,284.7,71.5,67.508,46.719,49.9,102.375-27.15,76.781-120.338,120.25-187.848,48.75-252.418,53.625-213.529,6.906-399.172-13-168.033,11.375-293.508-16.25-149.691-130-208.393-94.25-90.254,19.906-135.014-14.625-49.9-73.125-44.025-123.5S11440.656,213.2,11440.656,213.2Z" transform="translate(-11382.083 -128.948)" fill="none" stroke="rgba(255,255,255,0.15)" stroke-width="1"/>
          <path id="Path_347-4" data-name="Path 347" d="M11439.684,210.736s181.014-100,379.266-45.315,295.939,65.628,396.5,53.127,137.2-35.939,275.826-25,270.08,56.253,278.7,68.753,66.084,44.924,48.848,98.442-26.578,73.831-117.8,115.63-183.885,46.877-247.1,51.565-209.027,6.641-390.756-12.5-164.488,10.938-287.32-15.626-146.529-125.006-204-90.629-88.35,19.141-132.168-14.063-48.842-70.316-43.1-118.755S11439.684,210.736,11439.684,210.736Z" transform="translate(-11366.709 -128.948)" fill="none" stroke="rgba(255,255,255,0.15)" stroke-width="1"/>
          <path id="Path_348-4" data-name="Path 348" d="M11439.684,204.823s181.014-90.415,379.266-40.969,295.939,59.335,396.5,48.033,137.2-32.493,275.826-22.6,270.08,50.859,278.7,62.16,66.084,40.616,48.848,89-26.578,66.752-117.8,104.543-183.885,42.382-247.1,46.62-209.027,6-390.756-11.3-164.488,9.889-287.32-14.127-146.529-113.019-204-81.939-88.35,17.306-132.168-12.715-48.842-63.573-43.1-107.368S11439.684,204.823,11439.684,204.823Z" transform="translate(-11366.709 -107.579)" fill="none" stroke="rgba(255,255,255,0.15)" stroke-width="1"/>
          <path id="Path_349-4" data-name="Path 349" d="M11438.582,198.91s176.59-80.826,370-36.624,288.709,53.042,386.813,42.939,133.844-29.047,269.086-20.206,263.482,45.464,271.891,55.568,64.469,36.308,47.654,79.563-25.93,59.672-114.922,93.455-179.395,37.887-241.061,41.676-203.92,5.367-381.207-10.1-160.471,8.84-280.3-12.629-142.953-101.032-199.012-73.248-86.193,15.47-128.941-11.366-47.646-56.831-42.041-95.981S11438.582,198.91,11438.582,198.91Z" transform="translate(-11349.271 -89.263)" fill="none" stroke="rgba(255,255,255,0.15)" stroke-width="1"/>
        </g>
      </g>
      <g id="Group_272" data-name="Group 272" transform="translate(2440.735 785.404) rotate(158)">
        <g id="Group_267-2" data-name="Group 267" transform="translate(8.653 41.068)">
          <path id="Path_344-5" data-name="Path 344" d="M11436.869,270.163s169.688-196.374,355.535-88.982,277.426,128.87,371.7,104.323,128.612-70.572,258.57-49.093,253.186,110.46,261.265,135.007,61.949,88.215,45.789,193.305-24.915,144.979-110.431,227.057-172.381,92.05-231.637,101.255-195.949,13.04-366.31-24.547-154.2,21.478-269.345-30.683-137.366-245.467-191.235-177.964-82.823,37.587-123.9-27.615-45.789-138.075-40.4-233.194S11436.869,270.163,11436.869,270.163Z" transform="translate(-11394.653 -149.068)" fill="none" stroke="rgba(255,255,255,0.19)" stroke-width="1"/>
          <path id="Path_345-5" data-name="Path 345" d="M11436.869,265.223s169.688-188.362,355.535-85.352,277.426,123.613,371.7,100.067,128.612-67.693,258.57-47.091,253.186,105.954,261.265,129.5,61.949,84.616,45.789,185.419-24.915,139.064-110.431,217.794-172.381,88.295-231.637,97.124-195.949,12.508-366.31-23.545-154.2,20.6-269.345-29.432-137.366-235.453-191.235-170.7-82.823,36.054-123.9-26.488-45.789-132.442-40.4-223.68S11436.869,265.223,11436.869,265.223Z" transform="translate(-11394.653 -133.766)" fill="none" stroke="rgba(255,255,255,0.19)" stroke-width="1"/>
          <path id="Path_346-5" data-name="Path 346" d="M11436.265,263.691s167.263-185.878,350.455-84.226,273.462,121.982,366.385,98.747,126.774-66.8,254.876-46.469,249.567,104.556,257.531,127.791,61.064,83.5,45.136,182.973-24.559,137.23-108.854,214.921-169.918,87.13-228.327,95.843-193.149,12.344-361.074-23.235-152,20.33-265.5-29.043-135.4-232.347-188.5-168.452-81.64,35.578-122.129-26.139-45.133-130.7-39.823-220.73S11436.265,263.691,11436.265,263.691Z" transform="translate(-11385.094 -133.766)" fill="none" stroke="rgba(255,255,255,0.19)" stroke-width="1"/>
          <path id="Path_347-5" data-name="Path 347" d="M11435.526,261.817s164.3-182.839,344.244-82.849,268.613,119.988,359.889,97.133,124.527-65.708,250.356-45.71,245.143,102.847,252.966,125.7,59.981,82.135,44.336,179.982-24.123,134.986-106.924,211.407-166.905,85.706-224.279,94.276S12166.388,853.9,12001.44,818.9s-149.3,20-260.789-28.568-133-228.549-185.161-165.7-80.192,35-119.964-25.712S11391.2,470.367,11396.41,381.8,11435.526,261.817,11435.526,261.817Z" transform="translate(-11373.402 -133.766)" fill="none" stroke="rgba(255,255,255,0.19)" stroke-width="1"/>
          <path id="Path_348-5" data-name="Path 348" d="M11435.526,256.57s164.3-174.33,344.244-78.993,268.613,114.4,359.889,92.613,124.527-62.65,250.356-43.583,245.143,98.061,252.966,119.852,59.981,78.312,44.336,171.606-24.123,128.7-106.924,201.57-166.905,81.717-224.279,89.889-189.727,11.577-354.674-21.791-149.3,19.067-260.789-27.239-133-217.913-185.161-157.987-80.192,33.368-119.964-24.515-44.331-122.576-39.116-207.017S11435.526,256.57,11435.526,256.57Z" transform="translate(-11373.402 -117.515)" fill="none" stroke="rgba(255,255,255,0.19)" stroke-width="1"/>
          <path id="Path_349-5" data-name="Path 349" d="M11434.689,252.073s160.935-167.037,337.2-75.689S12035,286,12124.406,265.122s121.978-60.029,245.231-41.759,240.123,93.959,247.787,114.838,58.753,75.036,43.429,164.427-23.631,123.321-104.734,193.137-163.489,78.3-219.688,86.129-185.843,11.092-347.413-20.88-146.244,18.27-255.45-26.1-130.278-208.8-181.369-151.378-78.552,31.972-117.509-23.49-43.424-117.448-38.315-198.357S11434.689,252.073,11434.689,252.073Z" transform="translate(-11360.14 -103.585)" fill="none" stroke="rgba(255,255,255,0.19)" stroke-width="1"/>
        </g>
        <g id="Group_269-2" data-name="Group 269" transform="translate(82.635 186.369)">
          <path id="Path_344-6" data-name="Path 344" d="M11432.2,223.252s150.924-120.3,316.222-54.511,246.748,78.947,330.595,63.91,114.39-43.233,229.978-30.075,225.188,67.669,232.375,82.707,55.1,54.041,40.726,118.421-22.16,88.816-98.22,139.1-153.32,56.391-206.023,62.03-174.281,7.989-325.8-15.038-137.148,13.158-239.561-18.8-122.177-150.376-170.09-109.022-73.664,23.026-110.2-16.917-40.725-84.586-35.934-142.857S11432.2,223.252,11432.2,223.252Z" transform="translate(-11394.653 -149.068)" fill="none" stroke="rgba(255,255,255,0.19)" stroke-width="1"/>
          <path id="Path_345-6" data-name="Path 345" d="M11432.2,218.312s150.924-112.289,316.222-50.881,246.748,73.69,330.595,59.654,114.39-40.354,229.978-28.072,225.188,63.163,232.375,77.2,55.1,50.442,40.726,110.535-22.16,82.9-98.22,129.834-153.32,52.636-206.023,57.9-174.281,7.457-325.8-14.036-137.148,12.282-239.561-17.545-122.177-140.361-170.09-101.762-73.664,21.493-110.2-15.791-40.725-78.953-35.934-133.343S11432.2,218.312,11432.2,218.312Z" transform="translate(-11394.653 -133.766)" fill="none" stroke="rgba(255,255,255,0.19)" stroke-width="1"/>
          <path id="Path_346-6" data-name="Path 346" d="M11431.6,216.78s148.5-109.8,311.141-49.755,242.785,72.059,325.282,58.334,112.554-39.461,226.285-27.451,221.57,61.765,228.641,75.491,54.214,49.326,40.072,108.089-21.8,81.067-96.643,126.961-150.856,51.471-202.713,56.618-171.481,7.292-320.568-13.726-134.946,12.01-235.713-17.157-120.215-137.256-167.356-99.51-72.482,21.017-108.428-15.441-40.07-77.206-35.356-130.393S11431.6,216.78,11431.6,216.78Z" transform="translate(-11385.094 -133.766)" fill="none" stroke="rgba(255,255,255,0.19)" stroke-width="1"/>
          <path id="Path_347-6" data-name="Path 347" d="M11430.859,214.906s145.534-106.766,304.928-48.378,237.938,70.065,318.788,56.719,110.3-38.369,221.764-26.691,217.146,60.056,224.075,73.4,53.132,47.961,39.273,105.1-21.367,78.823-94.712,123.448-147.844,50.046-198.665,55.051-168.059,7.09-314.17-13.346-132.248,11.677-231-16.682-117.812-133.457-164.016-96.756-71.033,20.436-106.262-15.014-39.27-75.07-34.649-126.784S11430.859,214.906,11430.859,214.906Z" transform="translate(-11373.402 -133.766)" fill="none" stroke="rgba(255,255,255,0.19)" stroke-width="1"/>
          <path id="Path_348-6" data-name="Path 348" d="M11430.859,209.659s145.534-98.257,304.928-44.523,237.938,64.481,318.788,52.2,110.3-35.311,221.764-24.564,217.146,55.27,224.075,67.552,53.132,44.139,39.273,96.722-21.367,72.541-94.712,113.61-147.844,46.058-198.665,50.664-168.059,6.525-314.17-12.282-132.248,10.747-231-15.353-117.812-122.822-164.016-89.046-71.033,18.807-106.262-13.817-39.27-69.087-34.649-116.681S11430.859,209.659,11430.859,209.659Z" transform="translate(-11373.402 -117.515)" fill="none" stroke="rgba(255,255,255,0.19)" stroke-width="1"/>
          <path id="Path_349-6" data-name="Path 349" d="M11430.022,205.162s142.169-90.964,297.88-41.218,232.438,59.7,311.419,48.325,107.758-32.69,216.642-22.741,212.126,51.167,218.895,62.538,51.9,40.863,38.364,89.543-20.873,67.157-92.521,105.177-144.429,42.639-194.075,46.9-164.176,6.041-306.908-11.371-129.191,9.949-225.667-14.213-115.087-113.705-160.221-82.436-69.394,17.411-103.808-12.792-38.361-63.959-33.849-108.02S11430.022,205.162,11430.022,205.162Z" transform="translate(-11360.141 -103.585)" fill="none" stroke="rgba(255,255,255,0.19)" stroke-width="1"/>
        </g>
        <g id="Group_268-2" data-name="Group 268" transform="translate(39.684 99.725)">
          <path id="Path_344-7" data-name="Path 344" d="M11434.911,251.226s161.817-165.664,339.046-75.066,264.559,108.717,354.456,88.009,122.646-59.535,246.578-41.416,241.442,93.186,249.146,113.894,59.075,74.419,43.665,163.075-23.76,122.306-105.31,191.548-164.385,77.655-220.893,85.42-186.861,11-349.319-20.708-147.048,18.12-256.853-25.885-130.994-207.08-182.365-150.133-78.982,31.709-118.152-23.3-43.665-116.482-38.527-196.725S11434.911,251.226,11434.911,251.226Z" transform="translate(-11394.653 -149.068)" fill="none" stroke="rgba(255,255,255,0.19)" stroke-width="1"/>
          <path id="Path_345-7" data-name="Path 345" d="M11434.911,246.285s161.817-157.652,339.046-71.436,264.559,103.459,354.456,83.753,122.646-56.656,246.578-39.413,241.442,88.679,249.146,108.386,59.075,70.82,43.665,155.189-23.76,116.392-105.31,182.285-164.385,73.9-220.893,81.289-186.861,10.469-349.319-19.707-147.048,17.243-256.853-24.633-130.994-197.065-182.365-142.872-78.982,30.176-118.152-22.17-43.665-110.849-38.527-187.212S11434.911,246.285,11434.911,246.285Z" transform="translate(-11394.653 -133.766)" fill="none" stroke="rgba(255,255,255,0.19)" stroke-width="1"/>
          <path id="Path_346-7" data-name="Path 346" d="M11434.308,244.753s159.393-155.168,333.965-70.31,260.595,101.829,349.146,82.433,120.809-55.763,242.883-38.792,237.824,87.282,245.413,106.678,58.191,69.7,43.012,152.743-23.4,114.557-103.73,179.412-161.924,72.735-217.584,80.008-184.062,10.3-344.085-19.4-144.844,16.971-253-24.245-129.033-193.959-179.635-140.621-77.8,29.7-116.381-21.82-43.011-109.1-37.95-184.262S11434.308,244.753,11434.308,244.753Z" transform="translate(-11385.094 -133.766)" fill="none" stroke="rgba(255,255,255,0.19)" stroke-width="1"/>
          <path id="Path_347-7" data-name="Path 347" d="M11433.568,242.879S11590,90.75,11761.322,173.946s255.746,99.835,342.648,80.818,118.563-54.671,238.363-38.032,233.4,85.572,240.85,104.589,57.107,68.339,42.211,149.752-22.967,112.314-101.8,175.9-158.91,71.31-213.537,78.441-180.637,10.1-337.684-19.016-142.148,16.639-248.3-23.77-126.629-190.161-176.291-137.867-76.352,29.118-114.217-21.393-42.209-106.966-37.242-180.653S11433.568,242.879,11433.568,242.879Z" transform="translate(-11373.401 -133.766)" fill="none" stroke="rgba(255,255,255,0.19)" stroke-width="1"/>
          <path id="Path_348-7" data-name="Path 348" d="M11433.568,237.632s156.428-143.62,327.754-65.078,255.746,94.251,342.648,76.3,118.563-51.614,238.363-35.905,233.4,80.786,240.85,98.739,57.107,64.517,42.211,141.376-22.967,106.032-101.8,166.061-158.91,67.322-213.537,74.054-180.637,9.537-337.684-17.952-142.148,15.708-248.3-22.441-126.629-179.525-176.291-130.156-76.352,27.49-114.217-20.2-42.209-100.983-37.242-170.549S11433.568,237.632,11433.568,237.632Z" transform="translate(-11373.401 -117.515)" fill="none" stroke="rgba(255,255,255,0.19)" stroke-width="1"/>
          <path id="Path_349-7" data-name="Path 349" d="M11432.73,233.135s153.064-136.327,320.706-61.773,250.247,89.465,335.281,72.424,116.013-48.993,233.238-34.082,228.381,76.684,235.67,93.725,55.88,61.241,41.3,134.2-22.475,100.648-99.612,157.629-155.494,63.9-208.945,70.294-176.753,9.053-330.423-17.041-139.093,14.911-242.958-21.3-123.907-170.409-172.5-123.547-74.711,26.094-111.763-19.171-41.3-95.855-36.441-161.889S11432.73,233.135,11432.73,233.135Z" transform="translate(-11360.14 -103.585)" fill="none" stroke="rgba(255,255,255,0.19)" stroke-width="1"/>
        </g>
        <g id="Group_270-2" data-name="Group 270" transform="translate(113.665 245.026)">
          <path id="Path_344-8" data-name="Path 344" d="M11430.244,204.314s143.053-89.59,299.73-40.6,233.881,58.794,313.354,47.595,108.426-32.2,217.986-22.4,213.445,50.395,220.258,61.593,52.225,40.246,38.6,88.191-21,66.143-93.1,103.589-145.322,42-195.277,46.2-165.193,5.949-308.814-11.2-130,9.8-227.068-14S11580.109,351.3,11534.7,382.1s-69.824,17.148-104.451-12.6-38.6-62.993-34.061-106.389S11430.244,204.314,11430.244,204.314Z" transform="translate(-11394.653 -149.068)" fill="none" stroke="rgba(255,255,255,0.19)" stroke-width="1"/>
          <path id="Path_345-8" data-name="Path 345" d="M11430.244,199.374s143.053-81.579,299.73-36.966,233.881,53.536,313.354,43.339,108.426-29.317,217.986-20.395,213.445,45.888,220.258,56.086,52.225,36.647,38.6,80.3-21,60.228-93.1,94.326-145.322,38.24-195.277,42.064-165.193,5.417-308.814-10.2-130,8.923-227.068-12.747-115.8-101.974-161.219-73.931-69.824,15.615-104.451-11.472-38.6-57.36-34.061-96.875S11430.244,199.374,11430.244,199.374Z" transform="translate(-11394.653 -133.766)" fill="none" stroke="rgba(255,255,255,0.19)" stroke-width="1"/>
          <path id="Path_346-8" data-name="Path 346" d="M11429.639,197.842s140.629-79.094,294.651-35.84,229.917,51.906,308.044,42.019,106.586-28.425,214.29-19.774,209.827,44.491,216.523,54.377,51.341,35.531,37.948,77.859-20.649,58.394-91.52,91.453-142.862,37.076-191.971,40.783-162.394,5.252-303.578-9.887-127.793,8.651-223.22-12.358-113.844-98.868-158.488-71.679-68.639,15.139-102.681-11.123-37.947-55.613-33.481-93.925S11429.639,197.842,11429.639,197.842Z" transform="translate(-11385.093 -133.766)" fill="none" stroke="rgba(255,255,255,0.19)" stroke-width="1"/>
          <path id="Path_347-8" data-name="Path 347" d="M11428.9,195.968s137.664-76.056,288.441-34.463,225.066,49.912,301.547,40.4,104.34-27.332,209.771-19.014,205.4,42.781,211.957,52.288,50.258,34.166,37.148,74.867-20.213,56.15-89.59,87.939-139.848,35.651-187.922,39.216-158.971,5.051-297.18-9.507-125.1,8.319-218.512-11.884-111.441-95.07-155.145-68.925-67.191,14.557-100.518-10.7-37.145-53.477-32.775-90.316S11428.9,195.968,11428.9,195.968Z" transform="translate(-11373.401 -133.766)" fill="none" stroke="rgba(255,255,255,0.19)" stroke-width="1"/>
          <path id="Path_348-8" data-name="Path 348" d="M11428.9,191.471s137.664-68.763,288.441-31.158,225.066,45.126,301.547,36.53,104.34-24.712,209.771-17.191,205.4,38.679,211.957,47.274,50.258,30.889,37.148,67.688-20.213,50.766-89.59,79.507-139.848,32.233-187.922,35.456-158.971,4.566-297.18-8.6-125.1,7.521-218.512-10.744-111.441-85.953-155.145-62.316-67.191,13.162-100.518-9.67-37.145-48.349-32.775-81.656S11428.9,191.471,11428.9,191.471Z" transform="translate(-11373.401 -117.515)" fill="none" stroke="rgba(255,255,255,0.19)" stroke-width="1"/>
          <path id="Path_349-8" data-name="Path 349" d="M11428.063,186.974s134.3-61.47,281.392-27.853,219.57,40.34,294.18,32.656,101.791-22.091,204.646-15.367,200.383,34.577,206.778,42.26,49.03,27.613,36.242,60.509-19.72,45.382-87.4,71.074-136.433,28.814-183.332,31.7-155.085,4.082-289.916-7.684-122.041,6.723-213.174-9.6-108.719-76.837-151.354-55.707-65.552,11.766-98.062-8.644-36.236-43.221-31.974-73S11428.063,186.974,11428.063,186.974Z" transform="translate(-11360.14 -103.585)" fill="none" stroke="rgba(255,255,255,0.19)" stroke-width="1"/>
        </g>
      </g>
    </g>
  </g>
</svg>
